<?xml version="1.0" encoding="utf-8"?>
<!-- Generator: Adobe Illustrator 19.1.0, SVG Export Plug-In . SVG Version: 6.00 Build 0)  -->
<svg version="1.1" id="图层_1" xmlns="http://www.w3.org/2000/svg" xmlns:xlink="http://www.w3.org/1999/xlink" x="0px" y="0px"
	 viewBox="-147 270.9 300 300" style="enable-background:new -147 270.9 300 300;" xml:space="preserve">
<style type="text/css">
	.st0{fill:#3A92FF;}
	.st1{fill:#FFFFFF;}
	.st2{fill-rule:evenodd;clip-rule:evenodd;fill:#FFFFFF;}
</style>
<path class="st0" d="M3.3,271.2c82.6,0,149.7,67.1,149.7,149.7S85.9,570.6,3.3,570.6s-149.7-67.1-149.7-149.7
	C-146.4,337.9-79.7,271.2,3.3,271.2z"/>
<path class="st1" d="M17.2,644.7L17.2,644.7L17.2,644.7L17.2,644.7z"/>
<g>
	<path class="st2" d="M102.4,481.3c0.6,1.8,1,4.1,1.3,6.8c0.3,2.6,0.5,5.4,0.5,8.1c0,2.7-0.2,5.3-0.6,7.7c-0.4,2.4-1,4.2-1.8,5.4
		c-0.6,0.8-2.1,1.6-4.7,2.4c-2.6,0.8-5.9,1.5-9.7,2.1c-3.9,0.7-8.2,1.3-12.8,1.9c-4.7,0.6-9.4,1.1-14.1,1.5c-4.8,0.4-9.3,0.7-13.7,1
		c-4.4,0.2-8.2,0.4-11.6,0.4s-7.1-0.2-11.5-0.4c-4.3-0.3-8.8-0.6-13.5-1c-4.7-0.4-9.3-0.9-13.8-1.3c-4.5-0.5-8.7-1-12.5-1.6
		c-3.8-0.6-7-1.2-9.6-1.8c-2.6-0.6-4.2-1.2-4.9-1.7c-1-1-1.9-3.7-2.6-8.4c-0.6-4.7-0.5-10.7,0.6-18c0.6-4.3,2.4-7.5,5.1-9.6
		c2.7-2.1,5.9-3.9,9.7-5.2c3.7-1.3,7.5-2.5,11.5-3.5c4-1,7.5-2.5,10.5-4.5c2.4-1.6,4.2-3.1,5.5-4.4c1.3-1.3,2.1-2.7,2.8-4
		c0.6-1.3,0.9-2.8,0.9-4.2c0-1.4-0.1-3.1-0.2-5c-0.3-2.6-1.2-4.8-2.8-6.3c-1.6-1.5-3.3-3-5.2-4.5c-1-0.8-1.7-1.9-2.5-3.4
		c-0.7-1.4-1.3-2.9-1.9-4.4C0,423.8-0.5,422-1,420c-0.8-0.3-1.6-0.7-2.4-1.2c-0.7-0.6-1.3-1.3-2.1-2.4c-0.8-1-1.4-2.5-2.1-4.4
		c-0.7-1.8-1-3.6-0.8-5.3c0.2-1.7,0.5-3,1-4.1c0.6-1.3,1.3-2.5,2.1-3.6c-0.1-4.3,0.1-8.6,0.6-13c0.6-3.7,1.3-7.6,2.5-11.7
		c1.1-4,2.9-7.9,5.3-11.3c2.1-3.2,4.5-5.8,7.2-7.8c2.6-2,5.4-3.6,8.2-4.7c2.8-1.1,5.6-1.9,8.4-2.3c2.8-0.4,5.5-0.6,8-0.6
		c6.8,0,12.8,1.4,18.2,4.2c5.3,2.8,9.3,5.8,11.8,9c2.9,3.6,5.1,7.6,6.5,12.1c1.4,4.4,2.4,8.6,3.1,12.5c0.7,4.5,1,9,0.8,13.6
		c0.6,0.6,1.3,1.3,1.8,2.1c0.4,0.8,0.8,1.8,1.1,3.1c0.3,1.3,0.4,2.9,0.1,4.7c-0.3,2.4-0.8,4.4-1.6,5.8c-0.8,1.4-1.6,2.6-2.4,3.4
		c-1,1-2,1.5-3.2,1.8c-0.6,2-1,3.8-1.6,5.4c-0.6,1.4-1.2,2.9-2,4.4c-0.8,1.4-1.7,2.5-2.5,3.2c-1,1-2.1,1.7-2.9,2.4
		c-0.9,0.7-1.6,1.3-2.3,2.1c-0.7,0.7-1.3,1.6-1.7,2.5c-0.5,1-0.9,2.1-1.1,3.4c-0.2,1.7-0.4,3.5-0.3,5.3c0.1,1.8,0.5,3.6,1.3,5.2
		c0.8,1.7,2.1,3.4,3.9,5c1.8,1.6,4.3,3,7.5,4.2c2.8,1.2,5.9,2.2,9.3,3.1c3.4,0.9,6.7,1.9,9.8,3.1c3.2,1.2,5.9,2.8,8.4,4.6
		C99.6,476,101.3,478.4,102.4,481.3L102.4,481.3z M-4.2,444.5c-0.3,1.5-0.6,2.6-1,3.4c-0.4,0.8-1.3,1.7-2.8,2.6
		c-3.5,2.1-7.2,3.9-11.2,5.2c-4,1.3-7.9,2.8-11.5,4.4c-3.6,1.6-6.8,3.7-9.6,6.3c-2.7,2.6-4.4,6.3-5.1,11.1c-0.2,1.5-0.4,2.9-0.5,4.3
		c-0.1,1.4-0.2,2.7-0.3,3.9c-0.2,0.2-0.3,0.5-0.4,0.7c-0.1,0.2-0.2,0.4-0.4,0.7c-5.2-0.4-10.5-0.9-15.8-1.4
		c-5.3-0.6-10.2-1.2-14.7-1.8c-4.4-0.7-8.2-1.3-11.3-2c-3.1-0.6-5-1.3-5.8-2c-1.2-1-2.1-3.7-2.7-8.4c-0.6-4.7-0.4-10.7,0.7-18.2
		c0.6-4.1,2.4-7.3,5.1-9.5c2.8-2.1,5.9-4,9.8-5.2c3.7-1.3,7.5-2.5,11.5-3.5c4-1,7.5-2.5,10.5-4.4c2.4-1.6,4.2-3.1,5.6-4.4
		c1.3-1.3,2.1-2.7,2.7-4.1c0.6-1.4,0.8-2.9,0.8-4.3c0-1.4-0.1-3.1-0.2-4.8c-0.2-2.7-1.2-4.8-2.7-6.3c-1.5-1.5-3.3-3.1-5.1-4.7
		c-1-0.7-2-1.7-2.7-3.2c-0.7-1.4-1.3-2.9-1.9-4.4c-0.6-1.6-1-3.4-1.6-5.4c-0.8-0.3-1.6-0.7-2.4-1.2c-0.7-0.6-1.3-1.3-2.1-2.4
		c-0.7-1-1.4-2.5-2.1-4.4c-0.6-1.8-1-3.6-0.8-5.2c0.2-1.7,0.5-3.1,1-4.3c0.6-1.4,1.3-2.7,2.1-3.6c-0.2-4.3,0.1-8.6,0.6-13
		c0.6-3.6,1.4-7.5,2.6-11.6c1.2-4.1,3-7.9,5.4-11.2c2.1-3.2,4.5-5.8,7.2-7.8c2.6-2,5.3-3.6,8.1-4.7c2.7-1.1,5.5-1.9,8.3-2.3
		c2.8-0.4,5.6-0.6,8.2-0.6c6.7,0,12.7,1.4,18,4.2c5.3,2.8,9.4,5.8,12.1,9c1.7,2.2,2.9,4.4,3.3,6.3c0.5,1.9,1.1,4.2,1.9,6.7
		c-2.5,1.4-5.2,3.6-8.1,6.5c-2.9,2.9-5.3,5.8-7.5,8.7c-2.6,3.7-4.7,7.9-6,12.4c-1.3,4.5-2.3,8.7-3,12.6c-0.6,4.7-1,9.3-1,14
		c-1,1.2-1.9,2.5-2.4,4c-0.6,1.3-0.9,2.9-1,4.7c-0.2,1.8,0.2,3.7,0.8,5.9c0.7,2.3,1.4,4,2.1,5.2c0.8,1.2,1.5,2.1,2.2,2.8
		c0.8,0.8,1.6,1.3,2.4,1.6c0.6,2.1,1,4.1,1.6,6c0.6,1.6,1.2,3.3,1.9,4.9c0.8,1.7,1.7,2.9,2.7,3.7c1,0.8,1.7,1.4,2.1,2
		c0.6,0.6,1,1,1.3,1.5c0.3,0.5,0.6,1.1,0.6,1.9C-4.7,442.1-4.5,443.1-4.2,444.5L-4.2,444.5z"/>
</g>
</svg>
