<?xml version="1.0" encoding="utf-8"?>
<!-- Generator: Adobe Illustrator 19.1.0, SVG Export Plug-In . SVG Version: 6.00 Build 0)  -->
<svg version="1.1" id="图层_1" xmlns="http://www.w3.org/2000/svg" xmlns:xlink="http://www.w3.org/1999/xlink" x="0px" y="0px"
	 viewBox="0 0 300 300" style="enable-background:new 0 0 300 300;" xml:space="preserve">
<style type="text/css">
	.st0{fill:#999999;}
</style>
<path class="st0" d="M149.7,0C67.3,0,0,67.3,0,149.7s67.3,149.7,149.7,149.7c82.3,0,149.7-67.3,149.7-149.7S232,0,149.7,0L149.7,0
	L149.7,0L149.7,0z M149.7,284.4C75.6,284.4,15,223.8,15,149.7S75.6,15,149.7,15s134.7,60.7,134.7,134.7S223.8,284.4,149.7,284.4
	L149.7,284.4L149.7,284.4L149.7,284.4z M164.7,149.7c0-8.2-6.7-15-15-15s-15,6.7-15,15c0,8.2,6.7,15,15,15S164.7,157.9,164.7,149.7
	L164.7,149.7L164.7,149.7L164.7,149.7z M68.8,75.6c0,0.8,0,2.2,0.8,3l38.2,96.6c3,7.5,9,13.5,16.4,16.4l96.6,38.2
	c5.3,2.2,10.5-1.5,10.5-6.7c0-0.8,0-2.2-0.8-3l-38.2-96.6c-3-7.5-9-13.5-16.4-16.4L79.3,68.9C74.1,66.6,68.8,70.3,68.8,75.6
	L68.8,75.6L68.8,75.6L68.8,75.6z M169.9,122c3.7,1.5,6.7,4.5,8.2,8.2l32.2,80.1l-80.1-32.2c-3.7-1.5-6.7-4.5-8.2-8.2L89.7,89.8
	L169.9,122L169.9,122L169.9,122L169.9,122z"/>
</svg>
